<svg width="322" height="244" viewBox="0 0 322 244" fill="none" xmlns="http://www.w3.org/2000/svg">
<g filter="url(#filter0_d_38_2)">
<path d="M97.4746 0.00318291C101.363 0.0738508 105.572 1.85683 108.926 5.21395C113.28 9.57313 114.977 15.3854 113.728 20.0522C126.177 14.2956 125.161 13.816 137.579 5.84043C139.576 4.55749 141.434 3.97051 143.094 3.8923C145.861 3.76248 148.074 5.04462 149.464 6.85757C151.688 9.75834 151.92 14.0341 147.295 17.6577C141.143 22.4786 135.627 25.8043 131.624 29.4628C127.62 33.1206 125.15 37.5201 126.004 43.3641C126.63 47.6538 128.718 50.9069 131.252 53.5812C133.786 56.2551 136.754 58.4418 139.469 60.8636C144.898 65.7071 149.449 71.1368 148.404 83.5428C147.745 91.3804 141.631 94.4838 136.575 93.9395C134.047 93.6676 131.913 92.4833 130.744 90.4722C129.575 88.461 129.218 85.4227 130.948 80.9936C132.454 77.1394 130.333 72.8874 127.311 69.6601C124.289 66.4324 120.008 63.9392 115.637 64.6975C114.412 64.9099 113.372 65.6344 112.656 66.5148C111.94 67.3952 111.467 68.4244 111.076 69.542C110.293 71.7772 109.833 74.4399 109.266 77.197C108.134 82.7109 106.557 88.3067 102.71 90.7883C95.1825 95.6453 87.7874 94.2466 84.4863 90.8816C82.8355 89.1986 82.1236 87.1377 82.6767 84.6967C83.2295 82.2551 85.1966 79.3057 89.4741 76.3903C94.1667 73.1923 95.9495 66.8044 96.1853 60.485C96.4209 54.1654 95.1367 47.7654 92.1945 43.8046C90.8306 41.9684 88.7153 41.2006 86.3139 40.3492C83.9126 39.4976 81.1173 38.6669 78.2336 37.4336C72.4659 34.9671 66.4082 31.0423 62.5437 22.1923C59.1573 14.4367 61.8747 9.42485 65.5736 7.60217C67.4233 6.69043 69.5652 6.58344 71.6092 7.4779C73.6536 8.37197 75.6603 10.2939 77.0503 13.7805C79.6559 20.3176 84.827 24.0446 91.0172 24.9833C92.2494 25.1703 93.5185 25.2525 94.822 25.2439C94.9105 25.1884 94.9995 25.1308 95.0886 25.0762C93.8783 24.3184 92.7578 23.4256 91.7485 22.415C85.7871 16.447 84.7984 7.75422 89.5425 3.00478C91.6178 0.926828 94.4491 -0.0527955 97.4742 0.00219055L97.4746 0.00318291ZM97.939 3.80575C96.0407 3.76804 94.2658 4.43502 92.9633 5.84639C89.9855 9.0721 90.6036 14.9689 94.3448 19.0222C98.0865 23.0757 103.531 23.7492 106.509 20.5235C109.487 17.2978 108.868 11.3948 105.127 7.34133C103.023 5.0615 100.38 3.85339 97.939 3.80575ZM143.974 8.69375L131.543 17.7194L133.582 20.8212L146.149 11.6959L143.974 8.69375H143.974ZM69.8 13.1476L66.6087 15.0334L73.8216 27.2604L76.4057 24.3511L69.7998 13.1474L69.8 13.1476ZM128.538 19.9032L120.618 25.6539C121.14 26.8324 121.6 28.0228 121.994 29.2393L130.576 23.005L128.538 19.9034V19.9032ZM114.273 23.8486C114.129 23.8461 113.985 23.8473 113.839 23.8486C107.65 23.9042 100.938 25.3726 95.4292 29.3447C95.5145 35.9515 96.3965 41.046 99.6489 46.4658C102.533 44.6957 105.662 43.1537 108.901 42.08L111.968 51.2609L106.075 52.4336L107.507 58.978C112.998 59.0316 118.156 58.7304 122.979 56.0996L121.505 49.3691L115.63 50.5353L112.482 41.1063C115.048 40.56 117.648 40.345 120.228 40.5727C119.899 33.9804 118.5 29.0713 115.569 23.8923C115.139 23.8784 114.707 23.856 114.273 23.8486H114.273ZM79.6402 26.2803L77.0069 29.2516L92.04 34.9276C91.8907 33.6022 91.8031 32.2446 91.7549 30.8523L79.6404 26.2803H79.6402ZM127.299 56.2606L124.789 58.9901L135.162 68.5495L139.32 67.3398L127.298 56.2612L127.299 56.2606ZM105.257 60.752L100.69 70.4847L104.111 71.9239L108.616 62.3275L105.257 60.7522L105.257 60.752ZM140.355 70.9006L136.599 71.9924L135.831 88.8465L139.537 89.014L140.355 70.9004L140.355 70.9006ZM98.8002 73.7166L90.3541 87.3579L93.502 89.3118L102.258 75.1683L98.8002 73.7164V73.7166Z" fill="#FF8814" fill-opacity="0.6" shape-rendering="crispEdges"/>
</g>
<g filter="url(#filter1_d_38_2)">
<path d="M208.015 15.0039C203.219 15.0911 198.028 17.2914 193.891 21.4342C188.521 26.8136 186.428 33.9862 187.969 39.7453C172.616 32.6413 173.868 32.0495 158.553 22.2073C156.09 20.6241 153.798 19.8998 151.751 19.8033C148.338 19.6431 145.608 21.2253 143.894 23.4625C141.152 27.0422 140.866 32.3187 146.569 36.7903C154.157 42.7395 160.96 46.8436 165.897 51.3583C170.835 55.8723 173.881 61.3014 172.829 68.5132C172.057 73.8068 169.481 77.8213 166.355 81.1215C163.23 84.4211 159.57 87.1197 156.222 90.1082C149.526 96.0854 143.913 102.786 145.201 118.095C146.015 127.767 153.555 131.597 159.791 130.925C162.909 130.59 165.541 129.128 166.982 126.647C168.425 124.165 168.865 120.415 166.731 114.95C164.873 110.193 167.489 104.946 171.217 100.964C174.944 96.9804 180.224 93.9037 185.615 94.8395C187.125 95.1016 188.408 95.9957 189.291 97.0821C190.174 98.1685 190.757 99.4387 191.24 100.818C192.205 103.576 192.773 106.862 193.471 110.264C194.868 117.069 196.813 123.974 201.557 127.037C210.842 133.03 219.962 131.304 224.034 127.152C226.07 125.075 226.948 122.532 226.265 119.519C225.584 116.506 223.158 112.867 217.882 109.269C212.094 105.322 209.896 97.4395 209.605 89.6411C209.314 81.8424 210.898 73.9445 214.527 69.0567C216.209 66.7908 218.818 65.8433 221.779 64.7926C224.741 63.7417 228.189 62.7166 231.745 61.1946C238.859 58.1509 246.33 53.3075 251.096 42.3863C255.273 32.8155 251.921 26.6307 247.359 24.3814C245.078 23.2563 242.436 23.1242 239.915 24.2281C237.394 25.3314 234.919 27.7031 233.205 32.0057C229.991 40.0728 223.613 44.672 215.979 45.8305C214.459 46.0612 212.894 46.1626 211.286 46.1521C211.177 46.0835 211.067 46.0125 210.957 45.9451C212.45 45.0099 213.832 43.9082 215.077 42.6611C222.429 35.2963 223.649 24.569 217.798 18.708C215.238 16.1437 211.746 14.9348 208.015 15.0027L208.015 15.0039ZM207.442 19.6965C209.783 19.6499 211.972 20.473 213.579 22.2147C217.251 26.1954 216.489 33.4723 211.875 38.4742C207.26 43.4764 200.545 44.3075 196.873 40.3269C193.2 36.3462 193.962 29.0617 198.577 24.0595C201.172 21.2461 204.431 19.7553 207.442 19.6965ZM150.665 25.7285L165.997 36.8665L163.482 40.6943L147.983 29.4333L150.666 25.7285H150.665ZM242.147 31.2247L246.083 33.5519L237.187 48.6404L234 45.0502L242.147 31.2245L242.147 31.2247ZM169.703 39.5613L179.471 46.6579C178.828 48.1123 178.26 49.5814 177.774 51.0825L167.189 43.3892L169.703 39.5616V39.5613ZM187.297 44.4302C187.475 44.4271 187.651 44.4285 187.831 44.4302C195.465 44.4988 203.743 46.3108 210.537 51.2126C210.432 59.3657 209.344 65.6525 205.333 72.3407C201.776 70.1564 197.917 68.2535 193.922 66.9285L190.139 78.2581L197.407 79.7053L195.642 87.7813C188.869 87.8475 182.507 87.4758 176.559 84.2293L178.378 75.9236L185.623 77.3627L189.505 65.7269C186.341 65.0528 183.134 64.7875 179.952 65.0685C180.358 56.9332 182.083 50.8753 185.699 44.4841C186.229 44.467 186.761 44.4393 187.296 44.4302H187.297ZM230.01 47.4311L233.258 51.0977L214.717 58.1022C214.901 56.4666 215.01 54.7913 215.069 53.0731L230.01 47.4311H230.01ZM171.232 84.428L174.327 87.7962L161.534 99.593L156.405 98.1002L171.232 84.4287L171.232 84.428ZM198.416 89.9706L204.049 101.981L199.83 103.757L194.274 91.9148L198.416 89.9708L198.416 89.9706ZM155.129 102.494L159.761 103.842L160.708 124.64L156.138 124.847L155.129 102.494L155.129 102.494ZM206.38 105.969L216.797 122.803L212.914 125.215L202.115 107.761L206.38 105.969V105.969Z" fill="#FF8814" fill-opacity="0.7" shape-rendering="crispEdges"/>
</g>
<g filter="url(#filter2_d_38_2)">
<path d="M254.777 73.0055C248.037 73.1281 240.741 76.2198 234.928 82.0412C227.381 89.6002 224.44 99.6789 226.605 107.771C205.027 97.7891 206.787 96.9575 185.264 83.1276C181.801 80.9029 178.581 79.885 175.704 79.7494C170.908 79.5243 167.071 81.7476 164.662 84.8913C160.808 89.9214 160.406 97.3358 168.421 103.619C179.086 111.979 188.646 117.746 195.585 124.09C202.525 130.433 206.806 138.061 205.327 148.195C204.242 155.634 200.622 161.275 196.229 165.912C191.837 170.549 186.693 174.341 181.987 178.54C172.577 186.939 164.689 196.354 166.499 217.867C167.643 231.458 178.239 236.839 187.003 235.895C191.386 235.424 195.084 233.37 197.11 229.883C199.137 226.395 199.756 221.127 196.756 213.446C194.146 206.763 197.823 199.39 203.061 193.794C208.299 188.197 215.72 183.873 223.297 185.188C225.419 185.557 227.222 186.813 228.463 188.34C229.703 189.866 230.523 191.651 231.202 193.589C232.558 197.465 233.357 202.082 234.338 206.863C236.301 216.424 239.034 226.128 245.702 230.431C258.75 238.853 271.568 236.428 277.29 230.592C280.152 227.674 281.386 224.101 280.427 219.868C279.469 215.634 276.059 210.519 268.645 205.464C260.511 199.919 257.421 188.842 257.012 177.884C256.604 166.925 258.83 155.827 263.93 148.959C266.294 145.775 269.96 144.444 274.123 142.967C278.285 141.491 283.13 140.05 288.129 137.911C298.126 133.635 308.626 126.829 315.324 111.482C321.194 98.0339 316.484 89.3431 310.072 86.1825C306.866 84.6015 303.154 84.416 299.611 85.967C296.067 87.5174 292.589 90.8501 290.179 96.8959C285.663 108.232 276.7 114.694 265.97 116.322C263.834 116.646 261.635 116.789 259.375 116.774C259.222 116.678 259.068 116.578 258.913 116.483C261.011 115.169 262.953 113.621 264.703 111.869C275.036 101.52 276.749 86.4462 268.526 78.2104C264.929 74.6072 260.022 72.9085 254.778 73.0038L254.777 73.0055ZM253.972 79.5993C257.263 79.5339 260.339 80.6905 262.597 83.1379C267.758 88.7314 266.687 98.9567 260.202 105.985C253.717 113.014 244.279 114.182 239.118 108.589C233.957 102.995 235.028 92.7591 241.513 85.7302C245.161 81.7769 249.741 79.682 253.972 79.5993ZM174.178 88.0753L195.725 103.726L192.191 109.105L170.409 93.2813L174.179 88.0753H174.178ZM302.747 95.7985L308.278 99.0686L295.776 120.271L291.297 115.226L302.747 95.7982L302.747 95.7985ZM200.934 107.513L214.662 117.485C213.758 119.528 212.96 121.593 212.276 123.702L197.401 112.892L200.934 107.513V107.513ZM225.66 114.355C225.911 114.35 226.159 114.352 226.412 114.355C237.14 114.451 248.774 116.997 258.323 123.885C258.175 135.341 256.646 144.175 251.009 153.574C246.01 150.504 240.585 147.83 234.972 145.968L229.655 161.889L239.87 163.922L237.388 175.27C227.87 175.363 218.929 174.841 210.569 170.279L213.125 158.608L223.308 160.63L228.764 144.28C224.317 143.333 219.81 142.96 215.338 143.355C215.908 131.923 218.333 123.411 223.415 114.43C224.16 114.406 224.907 114.367 225.66 114.355H225.66ZM285.69 118.571L290.255 123.723L264.197 133.566C264.456 131.268 264.608 128.914 264.692 126.499L285.69 118.571H285.69ZM203.082 170.558L207.432 175.291L189.453 191.868L182.246 189.77L203.083 170.559L203.082 170.558ZM241.287 178.347L249.204 195.224L243.275 197.719L235.466 181.079L241.288 178.347L241.287 178.347ZM180.451 195.945L186.961 197.838L188.293 227.064L181.87 227.354L180.452 195.944L180.451 195.945ZM252.48 200.828L267.12 224.482L261.663 227.87L246.486 203.345L252.48 200.827V200.828Z" fill="#FF8814"/>
</g>
<g filter="url(#filter3_d_38_2)">
<path d="M59.9277 47.0049C65.8901 47.1131 72.3441 49.8445 77.4864 54.9873C84.1633 61.6652 86.765 70.5691 84.8498 77.7183C103.937 68.8996 102.381 68.1649 121.421 55.947C124.483 53.9817 127.332 53.0825 129.877 52.9627C134.12 52.7638 137.514 54.7279 139.645 57.5052C143.054 61.9489 143.41 68.4991 136.32 74.05C126.886 81.4352 118.429 86.53 112.29 92.1345C106.151 97.738 102.364 104.478 103.672 113.43C104.632 120.002 107.835 124.985 111.72 129.082C115.605 133.178 120.156 136.528 124.319 140.238C132.644 147.658 139.622 155.976 138.02 174.98C137.008 186.987 127.634 191.741 119.882 190.907C116.005 190.491 112.733 188.677 110.941 185.596C109.148 182.515 108.601 177.86 111.254 171.075C113.563 165.171 110.311 158.657 105.677 153.713C101.043 148.769 94.4787 144.949 87.776 146.111C85.8985 146.436 84.3038 147.546 83.2062 148.895C82.1086 150.244 81.3831 151.82 80.7829 153.532C79.5831 156.957 78.8765 161.036 78.0085 165.259C76.2724 173.706 73.8546 182.278 67.9561 186.08C56.4132 193.52 45.0741 191.378 40.0123 186.223C37.4811 183.645 36.3896 180.488 37.2376 176.748C38.0852 173.008 41.1014 168.49 47.6603 164.023C54.8556 159.124 57.5893 149.339 57.9508 139.658C58.312 129.977 56.343 120.172 51.8315 114.105C49.7403 111.292 46.4967 110.116 42.8147 108.812C39.1327 107.507 34.8465 106.234 30.4248 104.345C21.581 100.567 12.2926 94.5541 6.36703 80.9967C1.17451 69.1158 5.34119 61.4381 11.0129 58.6459C13.849 57.2492 17.1333 57.0853 20.2675 58.4555C23.4022 59.8252 26.4792 62.7694 28.6105 68.1105C32.6057 78.1249 40.5347 83.8342 50.0264 85.2723C51.9157 85.5588 53.8616 85.6847 55.8605 85.6716C55.9961 85.5864 56.1326 85.4982 56.2691 85.4146C54.4134 84.2537 52.6953 82.8861 51.1477 81.3379C42.0068 72.1954 40.4909 58.8788 47.7652 51.6031C50.9474 48.4198 55.2885 46.9191 59.9271 47.0034L59.9277 47.0049ZM60.6398 52.8301C57.7291 52.7723 55.0076 53.7941 53.0103 55.9562C48.4444 60.8977 49.3922 69.9311 55.1286 76.1404C60.866 82.35 69.2145 83.3817 73.7801 78.4402C78.346 73.4987 77.3983 64.4559 71.6615 58.2463C68.4346 54.7538 64.3826 52.9031 60.6398 52.8301ZM131.227 60.3181L112.166 74.1446L115.292 78.8964L134.562 64.9172L131.226 60.3181H131.227ZM17.4933 67.141L12.6 70.0299L23.6597 88.7606L27.6221 84.3038L17.493 67.1407L17.4933 67.141ZM107.558 77.4899L95.4146 86.2995C96.2142 88.1049 96.9196 89.9286 97.5247 91.7921L110.684 82.2417L107.558 77.4902V77.4899ZM85.6851 83.5341C85.4637 83.5301 85.2442 83.532 85.0204 83.5341C75.5299 83.6192 65.2382 85.8686 56.7915 91.9535C56.9222 102.075 58.2746 109.879 63.2616 118.182C67.6836 115.47 72.4821 113.108 77.4478 111.463L82.1514 125.527L73.1151 127.324L75.3104 137.349C83.7307 137.431 91.6395 136.97 99.0352 132.94L96.7737 122.629L87.7663 124.416L82.9398 109.971C86.8733 109.135 90.8603 108.805 94.8168 109.154C94.3121 99.055 92.1667 91.5348 87.6717 83.601C87.0125 83.5797 86.3512 83.5454 85.6857 83.5341H85.6851ZM32.5817 87.2592L28.5439 91.8109L51.5947 100.506C51.3657 98.4757 51.2313 96.396 51.1575 94.2631L32.582 87.2592H32.5817ZM105.658 133.186L101.81 137.368L117.715 152.012L124.09 150.159L105.658 133.187L105.658 133.186ZM71.8613 140.067L64.8581 154.977L70.103 157.181L77.0109 142.48L71.8609 140.067L71.8613 140.067ZM125.678 155.614L119.919 157.286L118.741 183.105L124.423 183.362L125.677 155.613L125.678 155.614ZM61.9603 159.928L49.0097 180.825L53.8364 183.818L67.2622 162.151L61.9603 159.927V159.928Z" fill="#FF8814" fill-opacity="0.8" shape-rendering="crispEdges"/>
</g>
<defs>
<filter id="filter0_d_38_2" x="57" y="0" width="98" height="102" filterUnits="userSpaceOnUse" color-interpolation-filters="sRGB">
<feFlood flood-opacity="0" result="BackgroundImageFix"/>
<feColorMatrix in="SourceAlpha" type="matrix" values="0 0 0 0 0 0 0 0 0 0 0 0 0 0 0 0 0 0 127 0" result="hardAlpha"/>
<feOffset dy="4"/>
<feGaussianBlur stdDeviation="2"/>
<feComposite in2="hardAlpha" operator="out"/>
<feColorMatrix type="matrix" values="0 0 0 0 0.498039 0 0 0 0 0.180392 0 0 0 0 0.701961 0 0 0 0.73 0"/>
<feBlend mode="normal" in2="BackgroundImageFix" result="effect1_dropShadow_38_2"/>
<feBlend mode="normal" in="SourceGraphic" in2="effect1_dropShadow_38_2" result="shape"/>
</filter>
<filter id="filter1_d_38_2" x="138" y="15" width="119" height="124" filterUnits="userSpaceOnUse" color-interpolation-filters="sRGB">
<feFlood flood-opacity="0" result="BackgroundImageFix"/>
<feColorMatrix in="SourceAlpha" type="matrix" values="0 0 0 0 0 0 0 0 0 0 0 0 0 0 0 0 0 0 127 0" result="hardAlpha"/>
<feOffset dy="4"/>
<feGaussianBlur stdDeviation="2"/>
<feComposite in2="hardAlpha" operator="out"/>
<feColorMatrix type="matrix" values="0 0 0 0 0.498039 0 0 0 0 0.180392 0 0 0 0 0.701961 0 0 0 0.73 0"/>
<feBlend mode="normal" in2="BackgroundImageFix" result="effect1_dropShadow_38_2"/>
<feBlend mode="normal" in="SourceGraphic" in2="effect1_dropShadow_38_2" result="shape"/>
</filter>
<filter id="filter2_d_38_2" x="158" y="73" width="164" height="171" filterUnits="userSpaceOnUse" color-interpolation-filters="sRGB">
<feFlood flood-opacity="0" result="BackgroundImageFix"/>
<feColorMatrix in="SourceAlpha" type="matrix" values="0 0 0 0 0 0 0 0 0 0 0 0 0 0 0 0 0 0 127 0" result="hardAlpha"/>
<feOffset dy="4"/>
<feGaussianBlur stdDeviation="2"/>
<feComposite in2="hardAlpha" operator="out"/>
<feColorMatrix type="matrix" values="0 0 0 0 0.498039 0 0 0 0 0.180392 0 0 0 0 0.701961 0 0 0 0.73 0"/>
<feBlend mode="normal" in2="BackgroundImageFix" result="effect1_dropShadow_38_2"/>
<feBlend mode="normal" in="SourceGraphic" in2="effect1_dropShadow_38_2" result="shape"/>
</filter>
<filter id="filter3_d_38_2" x="-1.14441e-05" y="47" width="146" height="152" filterUnits="userSpaceOnUse" color-interpolation-filters="sRGB">
<feFlood flood-opacity="0" result="BackgroundImageFix"/>
<feColorMatrix in="SourceAlpha" type="matrix" values="0 0 0 0 0 0 0 0 0 0 0 0 0 0 0 0 0 0 127 0" result="hardAlpha"/>
<feOffset dy="4"/>
<feGaussianBlur stdDeviation="2"/>
<feComposite in2="hardAlpha" operator="out"/>
<feColorMatrix type="matrix" values="0 0 0 0 0.498039 0 0 0 0 0.180392 0 0 0 0 0.701961 0 0 0 0.73 0"/>
<feBlend mode="normal" in2="BackgroundImageFix" result="effect1_dropShadow_38_2"/>
<feBlend mode="normal" in="SourceGraphic" in2="effect1_dropShadow_38_2" result="shape"/>
</filter>
</defs>
</svg>
