<svg width="114" height="115" viewBox="0 0 114 115" fill="none" xmlns="http://www.w3.org/2000/svg">
<g filter="url(#filter0_d_2_70)">
<path d="M28.7934 0.00130251C29.0914 -0.00204075 29.3913 0.00130267 29.6909 0.00846678C37.1979 0.187092 45.3751 3.68939 52.8931 11.307C74.0191 32.7138 89.7751 52.1854 111.04 52.866C105.38 57.2146 97.9073 60.3191 90.6358 61.6499C96.47 68.6373 102.813 73.0289 113 77.1344C103.925 79.3133 95.1799 78.6866 86.7162 76.5749C93.2481 84.7778 101.584 92.3001 112.439 99.4475C97.9882 99.3539 79.8334 96.5489 68.9669 88.0074C70.1259 95.3363 72.841 103.559 79.3116 112C62.38 107.527 51.2801 101.878 44.2241 92.052C43.5287 98.6222 44.449 102.822 46.8796 111.298C28.2089 95.4657 10.7719 71.9495 3.13116 46.5898C-4.65636 20.7479 10.0335 0.198793 28.7929 0.00130251H28.7934ZM29.4296 17.77C28.0509 17.77 26.7728 18.1836 25.7043 18.889C27.5487 18.9566 29.0253 20.4651 29.0253 22.3218C29.0253 24.2217 27.4815 25.7623 25.5775 25.7623C24.3525 25.7623 23.2797 25.1258 22.6679 24.1654C22.6612 24.2855 22.66 24.4094 22.66 24.5307C22.66 28.264 25.6873 31.2922 29.4293 31.2922C33.1708 31.2922 36.2053 28.2642 36.2053 24.531C36.2053 20.7985 33.1708 17.7704 29.4293 17.7704L29.4296 17.77ZM13.3031 26.098C12.2712 26.0967 11.2527 26.3316 10.326 26.7846C11.6985 27.2383 12.6896 28.524 12.6896 30.0454C12.6896 31.9451 11.1458 33.4856 9.24178 33.4856C8.15512 33.4856 7.19604 32.9858 6.56392 32.2023C6.54333 32.4177 6.52658 32.6384 6.52658 32.859C6.52658 36.592 9.56155 39.6203 13.3036 39.6203C17.0453 39.6203 20.08 36.5918 20.08 32.8588C20.08 29.1258 17.0451 26.0978 13.3036 26.0978L13.3031 26.098ZM39.9907 33.852L38.8164 44.6351L31.6881 38.6574L30.5811 48.8137L23.087 42.5229L22.0545 52.0154L14.7993 45.933L13.3703 59.0749L23.8869 67.8958L24.9192 58.4034L32.1747 64.4857L33.2817 54.3287L40.7762 60.6197L41.9505 49.8363L49.079 55.8135L50.5075 42.6722L39.9914 33.8512L39.9907 33.852Z" fill="#A0A2A1" fill-opacity="0.6" shape-rendering="crispEdges"/>
</g>
<defs>
<filter id="filter0_d_2_70" x="0" y="0" width="114" height="114.5" filterUnits="userSpaceOnUse" color-interpolation-filters="sRGB">
<feFlood flood-opacity="0" result="BackgroundImageFix"/>
<feColorMatrix in="SourceAlpha" type="matrix" values="0 0 0 0 0 0 0 0 0 0 0 0 0 0 0 0 0 0 127 0" result="hardAlpha"/>
<feOffset dy="1.5"/>
<feGaussianBlur stdDeviation="0.5"/>
<feComposite in2="hardAlpha" operator="out"/>
<feColorMatrix type="matrix" values="0 0 0 0 0.85098 0 0 0 0 0.85098 0 0 0 0 0.85098 0 0 0 1 0"/>
<feBlend mode="normal" in2="BackgroundImageFix" result="effect1_dropShadow_2_70"/>
<feBlend mode="normal" in="SourceGraphic" in2="effect1_dropShadow_2_70" result="shape"/>
</filter>
</defs>
</svg>
