<svg width="114" height="115" viewBox="0 0 114 115" fill="none" xmlns="http://www.w3.org/2000/svg">
<g filter="url(#filter0_d_2_69)">
<path d="M85.2066 0.00130251C84.9086 -0.00204075 84.6087 0.00130267 84.3091 0.00846678C76.8021 0.187092 68.6249 3.68939 61.1069 11.307C39.9809 32.7138 24.2249 52.1854 2.95956 52.866C8.6202 57.2146 16.0927 60.3191 23.3642 61.6499C17.53 68.6373 11.1868 73.0289 1 77.1344C10.075 79.3133 18.8201 78.6866 27.2838 76.5749C20.7519 84.7778 12.4158 92.3001 1.5608 99.4475C16.0118 99.3539 34.1666 96.5489 45.0331 88.0074C43.8741 95.3363 41.159 103.559 34.6884 112C51.62 107.527 62.7199 101.878 69.7759 92.052C70.4713 98.6222 69.551 102.822 67.1204 111.298C85.7911 95.4657 103.228 71.9495 110.869 46.5898C118.656 20.7479 103.966 0.198793 85.2071 0.00130251H85.2066ZM84.5704 17.77C85.9491 17.77 87.2272 18.1836 88.2957 18.889C86.4513 18.9566 84.9747 20.4651 84.9747 22.3218C84.9747 24.2217 86.5185 25.7623 88.4225 25.7623C89.6475 25.7623 90.7203 25.1258 91.3321 24.1654C91.3388 24.2855 91.34 24.4094 91.34 24.5307C91.34 28.264 88.3127 31.2922 84.5707 31.2922C80.8292 31.2922 77.7947 28.2642 77.7947 24.531C77.7947 20.7985 80.8292 17.7704 84.5707 17.7704L84.5704 17.77ZM100.697 26.098C101.729 26.0967 102.747 26.3316 103.674 26.7846C102.302 27.2383 101.31 28.524 101.31 30.0454C101.31 31.9451 102.854 33.4856 104.758 33.4856C105.845 33.4856 106.804 32.9858 107.436 32.2023C107.457 32.4177 107.473 32.6384 107.473 32.859C107.473 36.592 104.438 39.6203 100.696 39.6203C96.9547 39.6203 93.92 36.5918 93.92 32.8588C93.92 29.1258 96.9549 26.0978 100.696 26.0978L100.697 26.098ZM74.0093 33.852L75.1836 44.6351L82.3119 38.6574L83.4189 48.8137L90.913 42.5229L91.9455 52.0154L99.2007 45.933L100.63 59.0749L90.1131 67.8958L89.0808 58.4034L81.8253 64.4857L80.7183 54.3287L73.2238 60.6197L72.0495 49.8363L64.921 55.8135L63.4925 42.6722L74.0086 33.8512L74.0093 33.852Z" fill="#A0A2A1" fill-opacity="0.6" shape-rendering="crispEdges"/>
</g>
<defs>
<filter id="filter0_d_2_69" x="0" y="0" width="114" height="114.5" filterUnits="userSpaceOnUse" color-interpolation-filters="sRGB">
<feFlood flood-opacity="0" result="BackgroundImageFix"/>
<feColorMatrix in="SourceAlpha" type="matrix" values="0 0 0 0 0 0 0 0 0 0 0 0 0 0 0 0 0 0 127 0" result="hardAlpha"/>
<feOffset dy="1.5"/>
<feGaussianBlur stdDeviation="0.5"/>
<feComposite in2="hardAlpha" operator="out"/>
<feColorMatrix type="matrix" values="0 0 0 0 0.85098 0 0 0 0 0.85098 0 0 0 0 0.85098 0 0 0 1 0"/>
<feBlend mode="normal" in2="BackgroundImageFix" result="effect1_dropShadow_2_69"/>
<feBlend mode="normal" in="SourceGraphic" in2="effect1_dropShadow_2_69" result="shape"/>
</filter>
</defs>
</svg>
