<svg width="87" height="89" viewBox="0 0 87 89" fill="none" xmlns="http://www.w3.org/2000/svg">
<g filter="url(#filter0_d_27_39)">
<path d="M61.595 0C67.5042 3.30234 72.5674 7.92954 76.3871 13.5183C80.2068 19.107 82.6789 25.5051 83.6094 32.2102C84.5399 38.9153 83.9034 45.7448 81.7499 52.1625C79.5964 58.5802 75.9845 64.4112 71.1979 69.1979C66.4112 73.9845 60.5802 77.5964 54.1625 79.7499C47.7448 81.9034 40.9153 82.5399 34.2102 81.6094C27.5051 80.6789 21.107 78.2068 15.5183 74.3871C9.92954 70.5674 5.30234 65.5042 2 59.595C18.675 68.93 40.165 66.53 54.345 52.35C68.53 38.165 70.935 16.68 61.595 0Z" fill="#7F2EB3"/>
</g>
<defs>
<filter id="filter0_d_27_39" x="0" y="0" width="86.0251" height="88.0252" filterUnits="userSpaceOnUse" color-interpolation-filters="sRGB">
<feFlood flood-opacity="0" result="BackgroundImageFix"/>
<feColorMatrix in="SourceAlpha" type="matrix" values="0 0 0 0 0 0 0 0 0 0 0 0 0 0 0 0 0 0 127 0" result="hardAlpha"/>
<feOffset dy="4"/>
<feGaussianBlur stdDeviation="1"/>
<feComposite in2="hardAlpha" operator="out"/>
<feColorMatrix type="matrix" values="0 0 0 0 1 0 0 0 0 0.533333 0 0 0 0 0.0784314 0 0 0 1 0"/>
<feBlend mode="normal" in2="BackgroundImageFix" result="effect1_dropShadow_27_39"/>
<feBlend mode="normal" in="SourceGraphic" in2="effect1_dropShadow_27_39" result="shape"/>
</filter>
</defs>
</svg>
