<svg width="190" height="172" viewBox="0 0 190 172" fill="none" xmlns="http://www.w3.org/2000/svg">
<g filter="url(#filter0_d_2_3)">
<path d="M91.4099 141.715L83.2854 142.785L86.337 89.9496C88.8521 91.1954 91.5637 92.0036 94.3538 92.3391L91.5032 141.715H91.4099ZM101.642 144.212L103.211 144.682L109.781 144.914V90.1422C107.213 91.3406 104.46 92.0991 101.638 92.3854V144.222L101.642 144.212ZM10 160.474H180L159.87 148.98L146.285 145.731L129.526 138.848L116.347 151.23L102.198 150.731L92.1961 147.732L77.3545 149.661L68.3792 143.983L64.509 137.486L34.3267 144.479L14.4589 151.726L10 160.474ZM63.1519 41.169C61.8031 39.4296 59.3033 39.0769 57.5204 40.3747C55.7376 41.6722 55.3226 44.1461 56.5856 45.9479L60.8937 51.8145L66.7133 45.9942L63.1519 41.169ZM75.9723 58.5442L70.3717 50.9515L64.5664 56.7646L70.0198 64.1827L75.5379 58.9009C75.6714 58.769 75.8168 58.6496 75.9723 58.5442ZM85.1882 71.0265L79.5624 63.4409L73.6602 69.1042L79.645 77.2213C80.5282 74.7926 82.4812 72.6635 85.181 71.0443L85.1882 71.0265ZM76.2487 18.8079C75.4614 16.7483 73.1591 15.6934 71.071 16.4359C68.9827 17.1781 67.8769 19.4445 68.5838 21.5326L73.6926 35.7196L81.1026 32.2887L76.2487 18.8079ZM82.2909 59.5892L86.2078 70.4594C88.6466 69.2294 91.2767 68.4168 93.9876 68.0557L89.884 56.6933L82.2909 59.5892ZM83.1525 38.0413L75.7425 41.4721L80.2158 53.8937L87.8197 50.9871L83.1525 38.0413ZM93.923 49.6997L102.044 49.0328L101.426 35.2952L93.2983 35.7445L93.923 49.6997ZM94.1922 55.7625L94.7343 67.9773C97.4474 67.6578 100.192 67.7082 102.891 68.1271L102.313 55.0956L94.1922 55.7625ZM100.425 12.7593C100.269 10.5732 98.3884 8.90768 96.184 9.00397C93.9797 9.10098 92.2539 10.9245 92.293 13.116L93.029 29.6995L101.157 29.2324L100.425 12.7593ZM130.058 19.9598C130.756 17.8806 129.66 15.6271 127.585 14.8788C125.511 14.1306 123.215 15.1599 122.407 17.1995L117.977 29.3072L125.57 32.2317L130.058 19.9598ZM123.491 37.9343L115.898 35.0099L110.29 50.3452L117.977 53.0021L123.491 37.9343ZM103.746 68.2697C106.44 68.7412 109.027 69.6881 111.385 71.0657L115.905 58.7012L108.215 56.0442L103.746 68.2697ZM141.952 60.7804C143.76 59.453 144.142 56.9205 142.806 55.1241C141.47 53.3277 138.921 52.9479 137.112 54.2753L127.354 61.4366L132.528 67.6955L141.952 60.7804ZM117.305 78.8689L127.609 71.3047L122.436 65.0457L112.854 72.0786C115.291 73.9188 116.9 76.2548 117.298 78.8582L117.305 78.8689ZM98.2778 86.5223C105.738 86.5223 111.314 83.1771 111.314 80.1885C111.314 77.1999 105.738 73.8546 98.2778 73.8546C90.8175 73.8546 85.242 77.1999 85.242 80.1885C85.242 83.1771 90.7959 86.5081 98.2598 86.5081L98.2778 86.5223Z" fill="#FF8814"/>
</g>
<defs>
<filter id="filter0_d_2_3" x="0" y="0" width="190" height="171.474" filterUnits="userSpaceOnUse" color-interpolation-filters="sRGB">
<feFlood flood-opacity="0" result="BackgroundImageFix"/>
<feColorMatrix in="SourceAlpha" type="matrix" values="0 0 0 0 0 0 0 0 0 0 0 0 0 0 0 0 0 0 127 0" result="hardAlpha"/>
<feOffset dy="1"/>
<feGaussianBlur stdDeviation="5"/>
<feComposite in2="hardAlpha" operator="out"/>
<feColorMatrix type="matrix" values="0 0 0 0 0.498039 0 0 0 0 0.180392 0 0 0 0 0.701961 0 0 0 0.73 0"/>
<feBlend mode="normal" in2="BackgroundImageFix" result="effect1_dropShadow_2_3"/>
<feBlend mode="normal" in="SourceGraphic" in2="effect1_dropShadow_2_3" result="shape"/>
</filter>
</defs>
</svg>
